<?xml version="1.0" standalone="no"?>
<!DOCTYPE svg PUBLIC "-//W3C//DTD SVG 20010904//EN"
 "http://www.w3.org/TR/2001/REC-SVG-20010904/DTD/svg10.dtd">
<svg version="1.0" xmlns="http://www.w3.org/2000/svg"
 width="927.000000pt" height="927.000000pt" viewBox="0 0 927.000000 927.000000"
 preserveAspectRatio="xMidYMid meet">
<metadata>
Created by potrace 1.14, written by Peter Selinger 2001-2017
</metadata>
<g transform="translate(0.000000,927.000000) scale(0.100000,-0.100000)"
fill="#000000" stroke="none">
<path d="M3928 9265 c-2 -2 -21 -5 -43 -8 -91 -11 -273 -74 -283 -99 -2 -4 -9
-8 -16 -8 -7 0 -57 -33 -112 -73 -54 -40 -120 -87 -146 -105 -116 -80 -218
-220 -347 -480 -103 -207 -159 -373 -201 -601 -13 -68 -37 -110 -78 -134 -31
-18 -63 -19 -731 -18 -625 1 -701 -1 -715 -15 -11 -10 -16 -35 -17 -77 0 -61
-1 -113 -14 -632 -3 -143 -8 -435 -10 -650 -4 -350 -8 -512 -21 -895 -2 -63
-6 -362 -9 -665 -3 -302 -7 -577 -10 -610 -2 -33 -7 -202 -9 -375 -7 -389 -12
-479 -36 -550 -15 -46 -19 -100 -24 -340 -4 -157 -8 -301 -10 -320 -10 -101
-19 -311 -21 -525 -1 -132 -6 -323 -11 -425 -13 -288 -7 -1117 9 -1149 20 -42
51 -51 182 -50 66 1 147 -4 180 -9 100 -18 139 -23 260 -37 28 -4 66 -8 85
-10 19 -3 69 -7 110 -10 41 -3 98 -8 125 -10 28 -2 104 -7 170 -10 305 -15
367 -18 485 -30 19 -2 69 -6 110 -10 41 -3 82 -8 90 -10 18 -5 167 -17 380
-30 166 -10 285 -20 370 -30 19 -2 64 -7 100 -10 36 -4 76 -8 90 -10 22 -3 81
-8 230 -20 122 -10 194 -15 290 -20 99 -5 136 -8 248 -20 26 -3 74 -7 107 -10
33 -3 85 -7 115 -10 137 -12 182 -15 445 -30 61 -4 124 -8 140 -10 17 -2 66
-7 110 -11 44 -3 91 -8 105 -9 109 -11 157 -17 170 -20 8 -2 49 -7 90 -10 41
-4 82 -8 90 -10 8 -2 49 -6 90 -10 41 -3 82 -8 90 -10 8 -2 58 -7 110 -10 52
-4 103 -9 113 -11 44 -8 316 -18 492 -18 171 1 195 3 235 21 59 28 199 93 305
143 47 22 123 58 170 80 145 68 258 121 305 142 312 141 326 150 344 223 7 29
8 332 1 520 -7 206 -15 395 -20 470 -3 44 -7 134 -10 200 -4 66 -8 156 -10
200 -6 118 -14 342 -20 580 -8 292 -21 598 -30 675 -8 70 -16 383 -20 745 -4
350 -7 432 -19 536 -33 270 -36 333 -41 849 -3 234 -7 448 -10 475 -6 61 -13
169 -20 290 -3 50 -7 290 -10 535 -6 498 -11 670 -29 890 -10 122 -38 179 -88
181 -13 0 -392 2 -843 3 -451 2 -829 7 -840 11 -42 18 -61 56 -69 135 -18 171
-91 404 -187 593 -27 53 -61 100 -104 142 -71 71 -165 187 -165 203 0 22 -62
81 -108 102 -26 12 -55 29 -65 38 -22 20 -97 64 -147 88 -19 9 -42 22 -50 29
-17 14 -114 51 -157 60 -120 25 -237 14 -383 -35 -47 -16 -117 -38 -157 -49
-71 -19 -72 -19 -89 0 -49 54 -229 146 -331 170 -43 10 -247 21 -255 14z m202
-140 c54 -8 117 -37 192 -87 32 -21 67 -42 80 -47 21 -8 21 -8 2 -25 -10 -10
-49 -39 -85 -66 -77 -56 -119 -106 -163 -193 -17 -34 -44 -79 -60 -100 -30
-39 -46 -68 -142 -253 -74 -141 -148 -348 -168 -469 -13 -75 -16 -80 -69 -105
-58 -27 -78 -29 -447 -31 -204 -1 -312 5 -331 17 -15 9 -10 52 21 169 73 276
157 478 281 682 64 104 119 171 214 261 174 165 311 232 508 251 76 7 94 7
167 -4z m965 -59 c51 -6 106 -26 180 -65 32 -17 64 -31 71 -31 8 0 14 -5 14
-11 0 -16 49 -56 85 -70 16 -6 40 -16 52 -21 26 -13 123 -106 123 -119 0 -5
22 -45 49 -88 60 -95 129 -230 174 -343 67 -164 142 -400 138 -433 -4 -32 -59
-82 -104 -95 -47 -13 -53 -13 -367 -11 -124 1 -246 0 -272 -3 l-46 -4 -7 52
c-19 135 -94 377 -190 611 -29 72 -56 146 -60 165 -9 41 -39 87 -63 94 -9 3
-33 29 -52 57 -19 29 -63 88 -98 132 -83 107 -84 106 98 161 31 9 78 19 105
22 28 4 51 7 53 9 3 2 41 -1 117 -9z m-497 -238 c13 -13 42 -49 63 -80 21 -31
47 -59 57 -62 23 -8 82 -87 112 -151 33 -72 112 -303 150 -440 5 -16 20 -70
34 -120 38 -129 41 -158 17 -179 -19 -17 -53 -18 -531 -17 -287 1 -522 6 -536
11 -13 5 -38 20 -54 32 -26 19 -30 27 -24 53 27 126 160 472 213 552 21 32 59
93 85 135 41 66 55 81 94 98 31 14 77 52 137 115 90 94 91 95 124 85 19 -5 45
-20 59 -32z"/>
</g>
</svg>
